<?xml version="1.0" standalone="no"?>
<!DOCTYPE svg PUBLIC "-//W3C//DTD SVG 20010904//EN"
 "http://www.w3.org/TR/2001/REC-SVG-20010904/DTD/svg10.dtd">
<svg version="1.0" xmlns="http://www.w3.org/2000/svg"
 width="24"
height="24" viewBox="0 0 1024.000000 1024.000000"
 preserveAspectRatio="xMidYMid meet">

<g transform="translate(0.000000,1024.000000) scale(0.100000,-0.100000)"
fill="#000000" stroke="none">
<path d="M5214 9319 c-71 -27 -137 -88 -171 -157 -25 -50 -28 -68 -28 -152 0
-85 3 -101 30 -154 35 -69 100 -129 168 -153 l47 -17 0 -247 0 -246 -107 -7
c-147 -10 -292 -33 -388 -63 -137 -43 -313 -139 -409 -223 l-33 -29 -72 29
c-379 155 -798 183 -1196 80 -427 -110 -787 -344 -1071 -695 -496 -615 -616
-1567 -285 -2260 66 -138 130 -238 291 -450 98 -129 153 -213 189 -286 28 -57
51 -111 51 -120 0 -9 -11 -21 -24 -27 -39 -18 -96 -73 -117 -113 -23 -46 -24
-73 -4 -129 8 -24 14 -44 13 -45 -2 -1 -34 -10 -73 -19 -101 -24 -262 -106
-319 -161 -115 -111 -128 -275 -30 -367 52 -48 111 -69 283 -104 297 -60 503
-149 461 -199 -18 -21 -69 -42 -122 -50 -24 -4 -111 1 -193 11 -273 31 -460 8
-635 -77 -69 -34 -102 -58 -171 -128 -98 -99 -153 -197 -190 -336 -31 -114
-31 -306 -1 -429 65 -262 262 -461 514 -516 39 -8 721 -11 2658 -11 2579 0
2606 1 2684 21 102 26 206 83 263 143 25 27 46 47 47 45 1 -2 11 -23 22 -48
27 -65 90 -124 155 -146 42 -15 82 -19 184 -19 119 0 135 2 185 26 89 42 113
67 167 177 0 2 19 -16 41 -40 51 -55 148 -113 237 -141 102 -32 291 -31 390 2
110 36 184 80 261 156 166 164 245 405 215 655 -19 158 -58 260 -144 377 -161
218 -473 299 -768 200 l-68 -23 -43 22 c-64 33 -136 43 -423 59 -166 9 -279
20 -312 30 -62 19 -109 66 -93 95 17 31 60 59 119 76 218 62 277 91 359 174
23 24 57 73 75 109 27 56 32 77 35 161 7 175 -53 322 -186 457 -59 59 -185
145 -248 169 l-43 16 -7 66 c-11 106 3 472 26 657 66 545 191 1017 370 1398
10 21 20 27 45 27 52 0 146 28 225 67 90 45 220 168 267 254 105 188 109 428
10 629 -115 237 -393 384 -659 350 -161 -20 -284 -83 -389 -199 -86 -96 -157
-254 -160 -356 0 -21 -10 -3 -33 65 -45 129 -67 173 -130 257 -29 39 -62 93
-72 119 -49 129 -180 280 -328 378 -237 158 -534 240 -911 252 -93 3 -185 7
-202 10 l-33 5 0 242 0 242 49 18 c57 20 130 86 159 143 55 108 51 239 -11
342 -78 130 -249 187 -393 131z m184 -144 c76 -32 112 -86 112 -167 -1 -161
-175 -242 -294 -137 -97 85 -78 241 36 298 51 25 95 27 146 6z m313 -1145
c430 -33 692 -126 882 -313 44 -43 78 -80 75 -82 -2 -2 -30 5 -63 16 -136 45
-357 61 -1045 75 -260 5 -333 3 -417 -10 -245 -37 -416 -155 -509 -351 -63
-133 -67 -158 -72 -506 -3 -258 -1 -332 12 -408 32 -182 109 -323 231 -424
119 -99 258 -153 465 -181 131 -19 693 -39 937 -34 100 1 176 0 169 -4 -28
-16 -166 -49 -265 -63 -282 -43 -932 -34 -1250 15 -268 42 -496 157 -623 314
-47 59 -110 177 -122 229 -5 22 -3 27 13 27 47 0 131 42 179 90 185 182 189
565 8 746 -49 48 -120 84 -168 84 -29 0 -31 22 -8 90 104 309 363 553 685 645
50 14 133 32 185 39 116 17 513 20 701 6z m-2026 -140 c145 -14 276 -41 410
-86 61 -20 111 -38 113 -39 1 -1 -22 -39 -53 -84 -73 -105 -138 -243 -172
-365 -24 -85 -31 -99 -59 -117 -51 -31 -104 -96 -140 -173 -72 -151 -73 -319
-4 -473 30 -65 106 -155 150 -178 21 -11 29 -26 39 -72 18 -79 55 -166 106
-243 116 -180 274 -293 519 -375 95 -32 304 -75 363 -75 l26 0 -7 -142 c-10
-207 -24 -327 -52 -468 -27 -133 -89 -333 -108 -348 -6 -5 -38 -17 -71 -27
-83 -24 -164 -62 -273 -128 -98 -60 -234 -160 -266 -196 -19 -21 -19 -21 11
-21 45 0 137 33 318 115 91 41 198 84 238 95 169 47 286 34 361 -41 43 -44 41
-50 -19 -69 -91 -28 -274 -125 -442 -233 -275 -177 -349 -213 -535 -262 -201
-52 -367 -55 -681 -9 -93 13 -183 24 -201 24 -18 0 -36 3 -39 6 -3 4 18 34 47
68 76 86 159 218 221 349 256 543 268 1172 31 1673 -62 130 -131 227 -229 321
-224 215 -507 249 -732 88 -172 -123 -281 -309 -320 -550 -20 -122 -19 -221 5
-335 51 -250 209 -428 408 -459 117 -18 217 13 294 92 116 119 146 343 67 504
-33 68 -70 101 -123 110 -43 7 -74 -11 -91 -52 -16 -36 -13 -51 29 -152 70
-169 -17 -311 -163 -267 -159 47 -258 313 -207 555 42 198 194 362 357 384
194 27 389 -136 507 -425 108 -264 131 -648 60 -979 -67 -313 -231 -636 -429
-845 l-81 -86 48 6 c27 4 47 4 44 1 -3 -3 -26 -8 -51 -10 -25 -2 -50 -6 -55
-9 -5 -4 -67 -16 -139 -28 -144 -24 -335 -24 -409 1 -48 16 -96 60 -96 88 0
32 54 86 116 115 l56 27 -4 47 c-6 57 -72 213 -134 313 -25 39 -90 130 -146
202 -224 287 -349 544 -407 832 -121 608 37 1263 419 1730 73 90 227 237 327
313 357 271 811 403 1248 362z m2210 -320 c573 -12 658 -20 774 -75 140 -67
252 -212 297 -385 37 -144 34 -538 -6 -695 -58 -231 -189 -368 -407 -427 -68
-18 -114 -22 -345 -26 -326 -5 -874 13 -989 33 -115 20 -197 49 -266 94 -125
82 -211 214 -238 368 -20 113 -20 622 0 718 42 200 187 346 385 389 81 18 170
18 795 6z m2015 -64 c169 -59 289 -192 335 -371 67 -262 -92 -533 -359 -610
-74 -22 -237 -17 -311 10 -104 37 -206 119 -259 210 -94 159 -94 380 0 541 61
103 160 185 269 223 89 30 233 29 325 -3z m-3715 -431 c24 -18 49 -52 69 -94
29 -62 31 -73 31 -176 0 -129 -17 -191 -71 -254 -45 -52 -81 -71 -134 -71 -59
0 -107 26 -145 79 -124 171 -83 448 80 536 46 24 124 15 170 -20z m2956 -306
c25 -71 90 -168 150 -224 l50 -47 -25 -61 c-93 -239 -161 -479 -321 -1142 -24
-99 -64 -247 -90 -330 -49 -158 -141 -401 -155 -410 -4 -3 -29 5 -55 16 -26
11 -77 24 -114 27 l-66 7 -52 155 c-29 85 -73 234 -97 330 -47 181 -116 487
-116 514 0 9 24 22 68 37 128 42 260 123 330 204 17 18 52 45 79 58 259 132
388 395 386 790 0 76 2 135 5 132 3 -3 13 -28 23 -56z m419 -374 c36 -9 66
-18 68 -19 1 -2 -11 -32 -27 -67 -124 -274 -264 -820 -321 -1254 -59 -448 -64
-712 -14 -883 15 -54 15 -54 92 -89 202 -93 331 -239 361 -409 21 -113 -13
-209 -99 -287 -64 -58 -123 -80 -325 -123 -88 -18 -228 -52 -311 -73 -247 -65
-433 -72 -684 -26 -318 58 -526 60 -800 5 -261 -52 -407 -51 -690 6 -258 51
-373 51 -670 -1 -198 -34 -226 -37 -350 -32 -99 4 -164 12 -245 32 -60 15
-139 34 -175 43 -47 12 -113 16 -240 16 -152 1 -192 -3 -308 -27 -216 -44
-331 -36 -502 38 -136 59 -187 75 -320 96 -156 25 -214 43 -240 76 -74 94 72
225 344 308 l89 27 66 -22 c112 -38 271 -38 528 -1 254 37 395 40 598 10 183
-26 494 -36 618 -19 235 32 414 109 797 345 180 111 395 204 575 249 69 17
275 55 275 50 0 -1 -18 -36 -40 -76 -24 -44 -40 -87 -40 -107 0 -31 2 -33 28
-26 47 11 120 65 157 115 79 107 146 291 177 485 24 151 14 595 -18 797 l-6
36 43 6 c24 4 71 7 103 9 l59 2 37 -190 c74 -373 180 -739 265 -910 43 -86 93
-155 114 -155 5 0 15 25 22 55 11 50 15 55 39 55 44 0 113 -29 146 -61 18 -18
40 -29 50 -27 70 13 215 392 334 875 151 613 210 825 297 1060 39 105 47 121
62 114 9 -5 46 -17 81 -26z m-2033 -814 l242 -1 5 -32 c21 -130 30 -286 30
-488 1 -247 -10 -340 -53 -481 l-21 -66 -117 -17 c-65 -10 -158 -27 -208 -37
-112 -24 -110 -24 -123 6 -39 86 -168 171 -277 182 l-54 6 30 80 c64 174 103
384 119 637 5 91 10 179 10 195 l0 30 88 -7 c48 -3 196 -7 329 -7z m-2404
-1668 c-29 -2 -78 -2 -110 0 -32 2 -8 3 52 3 61 0 87 -1 58 -3z m-1169 -1168
c78 -17 155 -51 170 -77 8 -13 0 -38 -34 -108 -25 -51 -50 -96 -57 -102 -9 -7
-28 -2 -66 17 -141 69 -291 49 -367 -48 -50 -63 -65 -116 -65 -232 0 -100 2
-115 27 -160 51 -96 129 -144 234 -145 34 0 76 3 93 6 l31 7 0 76 0 76 -85 2
c-50 0 -92 6 -100 13 -19 16 -21 200 -3 218 15 15 380 17 409 2 18 -10 19 -24
19 -258 0 -284 2 -275 -89 -321 -93 -48 -165 -64 -276 -65 -113 0 -185 17
-278 67 -159 84 -258 301 -243 528 19 262 152 445 365 501 82 21 223 23 315 3z
m6651 0 c164 -43 285 -178 330 -366 8 -37 15 -111 15 -174 0 -277 -113 -462
-325 -535 -80 -27 -228 -28 -317 0 -203 62 -318 254 -318 530 0 285 127 485
348 545 65 18 196 18 267 0z m-5722 -50 c37 -99 307 -971 307 -991 0 -37 -19
-44 -124 -44 -56 0 -107 4 -113 8 -7 5 -26 51 -41 103 l-28 94 -170 3 -171 2
-27 -92 c-15 -51 -35 -99 -44 -105 -24 -19 -206 -17 -226 2 -17 17 -19 7 74
310 146 479 229 735 243 753 7 9 47 12 156 10 l145 -3 19 -50z m967 31 c145
-55 215 -166 215 -341 0 -77 -4 -99 -28 -150 -32 -68 -73 -115 -135 -155 l-42
-28 117 -177 c94 -143 115 -180 106 -193 -8 -14 -30 -18 -117 -20 -59 -1 -114
2 -125 8 -11 5 -63 89 -117 185 l-98 175 -48 0 -48 0 0 -173 c0 -121 -4 -177
-12 -185 -15 -15 -191 -16 -219 -2 -18 10 -19 27 -19 539 0 290 3 531 7 535 4
4 123 6 263 4 211 -4 263 -7 300 -22z m495 -21 c11 -23 53 -116 94 -208 41
-91 77 -165 79 -162 2 2 30 62 62 132 31 70 74 163 94 206 l36 78 127 -3 c113
-3 128 -5 131 -21 2 -9 -52 -122 -119 -250 -67 -127 -142 -269 -166 -315 l-43
-82 0 -198 c0 -141 -3 -201 -12 -210 -16 -16 -210 -16 -226 0 -9 9 -12 70 -12
211 l0 199 -69 127 c-243 448 -275 514 -254 535 4 3 63 5 132 4 l126 -3 20
-40z m1563 33 c11 -14 332 -1024 332 -1045 0 -1 -7 -9 -16 -17 -12 -13 -38
-16 -117 -16 -56 0 -107 4 -113 8 -7 4 -25 50 -41 102 l-29 95 -165 3 -166 2
-27 -92 c-16 -51 -33 -99 -38 -105 -7 -9 -42 -13 -110 -13 -100 0 -138 9 -138
34 0 13 168 557 270 871 28 88 56 166 62 172 15 18 281 18 296 1z m622 -358
c5 -345 6 -367 26 -405 57 -109 250 -114 316 -7 23 37 23 42 26 399 2 288 6
364 16 373 9 7 53 10 122 8 l109 -3 5 -140 c3 -77 3 -266 0 -420 l-5 -280 -29
-53 c-52 -93 -147 -163 -259 -191 -81 -20 -232 -15 -311 9 -84 26 -129 54
-180 110 -50 56 -74 112 -86 202 -13 102 -13 724 1 749 9 18 19 19 127 17
l117 -3 5 -365z m1478 358 c8 -8 12 -45 12 -102 0 -126 0 -126 -157 -126
l-123 0 0 -415 c0 -485 15 -439 -136 -433 -71 2 -97 7 -104 18 -6 9 -10 183
-10 423 l0 407 -119 0 c-68 0 -122 4 -126 10 -12 20 -17 175 -6 203 l11 27
373 0 c277 0 376 -3 385 -12z"/>
<path d="M2270 6806 c0 -2 8 -10 18 -17 15 -13 16 -12 3 4 -13 16 -21 21 -21
13z"/>
<path d="M5150 7404 c-113 -30 -194 -98 -244 -203 l-31 -66 -3 -318 c-3 -272
-1 -327 13 -375 59 -203 200 -303 465 -332 52 -6 304 -14 560 -17 422 -5 473
-4 545 12 195 43 310 148 361 331 22 77 32 474 15 584 -15 93 -56 184 -112
245 -51 55 -157 109 -246 125 -76 13 -640 30 -1003 29 -201 0 -278 -4 -320
-15z m307 -459 c43 -12 60 -52 65 -155 6 -111 18 -141 84 -199 65 -57 139 -83
253 -89 102 -5 181 8 246 40 114 57 146 108 155 250 5 83 9 101 29 122 44 47
128 38 161 -17 64 -105 12 -304 -108 -419 -117 -112 -237 -152 -452 -153 -157
0 -233 16 -344 72 -106 54 -201 172 -232 287 -29 107 -10 230 39 254 46 22 51
22 104 7z"/>
<path d="M7745 7201 c-91 -41 -148 -158 -126 -255 33 -145 178 -222 309 -166
194 84 187 355 -11 429 -43 17 -127 13 -172 -8z m242 -73 c14 -13 23 -33 23
-51 0 -37 -48 -87 -85 -87 -16 0 -38 12 -56 29 -38 39 -38 74 1 113 26 25 36
29 62 24 18 -3 42 -16 55 -28z"/>
<path d="M5968 3880 c-28 -28 -30 -35 -26 -85 10 -114 104 -248 242 -344 88
-60 157 -93 264 -123 62 -18 103 -22 212 -22 120 0 144 3 216 27 194 65 345
219 384 391 11 52 7 81 -18 109 -22 25 -61 21 -143 -17 -141 -65 -306 -91
-475 -75 -129 12 -231 40 -401 110 -169 70 -209 75 -255 29z m172 -170 c0 -5
-2 -10 -4 -10 -3 0 -8 5 -11 10 -3 6 -1 10 4 10 6 0 11 -4 11 -10z m121 -147
c13 -16 12 -17 -3 -4 -10 7 -18 15 -18 17 0 8 8 3 21 -13z m286 -129 c-3 -3
-12 -4 -19 -1 -8 3 -5 6 6 6 11 1 17 -2 13 -5z m176 -11 c-24 -2 -62 -2 -85 0
-24 2 -5 4 42 4 47 0 66 -2 43 -4z"/>
<path d="M8393 2501 c-90 -41 -138 -161 -131 -324 3 -85 8 -104 38 -164 31
-60 41 -71 89 -95 89 -46 184 -30 243 40 93 111 97 368 7 493 -46 65 -161 88
-246 50z"/>
<path d="M2720 2430 c-1 -3 -25 -81 -54 -175 l-53 -170 105 -3 c58 -1 106 -1
108 1 2 1 -19 77 -47 168 -53 175 -57 187 -59 179z"/>
<path d="M3540 2385 l0 -145 83 0 c92 0 137 16 170 62 28 38 33 115 9 157 -29
54 -72 71 -174 71 l-88 0 0 -145z"/>
<path d="M5716 2273 c-26 -87 -50 -166 -52 -175 -5 -16 4 -18 100 -18 75 0
106 3 106 12 0 17 -92 321 -100 331 -4 4 -28 -64 -54 -150z"/>
</g>
</svg>
